<?xml version="1.0" encoding="UTF-8"?>
<svg id="Layer_1" data-name="Layer 1" xmlns="http://www.w3.org/2000/svg" viewBox="0 0 560 560">
  <defs>
    <style>
      .cls-1 {
        fill: #fff;
      }

      .cls-2 {
        fill: #222d65;
      }
    </style>
  </defs>
  <circle class="cls-2" cx="280" cy="314.91" r="189.28"/>
  <g>
    <path class="cls-1" d="m220.17,384.19v20.36c0,1.83,1.49,3.32,3.32,3.32s3.32-1.49,3.32-3.32v-20.36h2.81c21.14-.02,38.27-17.16,38.3-38.3v-3.22h-3.04c-19.55.02-35.95,14.75-38.07,34.19v-32.12h2.81c21.14-.02,38.27-17.16,38.3-38.3v-3.22h-3.04c-19.55.02-35.95,14.75-38.07,34.19v-32.12h2.81c21.14-.02,38.27-17.16,38.3-38.3v-3.22h-3.04c-19.55.02-35.95,14.75-38.07,34.19v-32.12h2.81c21.14-.02,38.27-17.16,38.3-38.3v-3.22h-3.04c-19.55.02-35.95,14.75-38.07,34.19v-19.13c14.1-15.08,13.7-38.63-.9-53.22l-2.27-2.28-2.15,2.15c-14.4,14.44-14.99,37.63-1.32,52.77v16.89c-3.36-18.16-19.18-31.34-37.65-31.37h-3.04v3.22c.02,21.14,17.16,38.28,38.3,38.3h2.39v29.3c-3.36-18.16-19.18-31.34-37.65-31.37h-3.04v3.22c.02,21.14,17.16,38.27,38.3,38.3h2.39v29.3c-3.36-18.16-19.18-31.34-37.65-31.37h-3.04v3.22c.02,21.14,17.16,38.27,38.3,38.3h2.39v29.3c-3.36-18.16-19.18-31.34-37.65-31.37h-3.04v3.22c.02,21.14,17.16,38.27,38.3,38.3h2.39Z"/>
    <path class="cls-1" d="m368.61,286.59c-7.51,3.77-13.56,9.92-17.2,17.5l5.71-17.37c18-9.97,24.9-32.39,15.62-50.76l-1.45-2.87-2.71,1.37c-18.27,9.23-26.06,31.2-17.66,49.88l-5.45,16.57c2.85-18.51-8.09-36.37-25.87-42.25l-2.88-.95-1,3.06c-6.58,20.09,4.34,41.72,24.42,48.34l2.38.78-9.34,28.42c2.84-18.5-8.11-36.34-25.89-42.18l-2.88-.95-1.01,3.06c-6.58,20.09,4.34,41.72,24.42,48.34l2.38.78-9.34,28.42c2.84-18.5-8.11-36.34-25.89-42.18l-2.88-.95-1,3.06c-6.58,20.09,4.34,41.72,24.42,48.34l2.38.78-9.34,28.42c2.84-18.5-8.11-36.34-25.89-42.18l-2.88-.95-1,3.06c-6.58,20.09,4.34,41.72,24.42,48.34l2.38.78-6.33,19.24c-.57,1.74.38,3.62,2.12,4.19,1.74.57,3.62-.38,4.19-2.12h0l6.33-19.24,2.56.84c20.09,6.61,41.74-4.33,48.34-24.42l1.01-3.06-2.88-.95c-18.22-5.99-38.07,2.43-46.43,19.69l9.73-29.58,2.56.84c20.09,6.6,41.74-4.33,48.34-24.43l1-3.06-2.88-.95c-18.22-5.99-38.07,2.43-46.43,19.69l9.73-29.58,2.56.84c20.09,6.61,41.74-4.33,48.34-24.42l1-3.06-2.88-.95c-18.22-5.99-38.07,2.43-46.43,19.7l9.72-29.58,2.56.84c20.09,6.61,41.74-4.33,48.34-24.42l1.01-3.06-2.88-.95c-9.65-3.2-20.17-2.41-29.23,2.2h0Z"/>
  </g>
</svg>