<?xml version="1.0" encoding="UTF-8"?>
<svg id="Layer_1" data-name="Layer 1" xmlns="http://www.w3.org/2000/svg" viewBox="0 0 560 560">
  <defs>
    <style>
      .cls-1 {
        fill: #fff;
      }

      .cls-2 {
        fill: #efa47b;
      }
    </style>
  </defs>
  <circle class="cls-2" cx="280" cy="280" r="189.28"/>
  <g>
    <path class="cls-1" d="m407.48,273.04c0,34.52-28.08,62.6-62.6,62.6s-62.6-28.08-62.6-62.6,28.08-62.6,62.6-62.6,62.6,28.08,62.6,62.6Zm-67.41-11.18c0-2.33,1.48-3.95,2.81-3.95h14.04c3.99,0,7.22-3.24,7.22-7.22s-3.24-7.22-7.22-7.22h-4.82v-1.72c0-3.99-3.24-7.22-7.22-7.22s-7.22,3.24-7.22,7.22v2.68c-6.95,2.37-12.04,9.25-12.04,17.44,0,10.15,7.74,18.4,17.26,18.4h4.02c1.33,0,2.81,1.63,2.81,3.96s-1.48,3.95-2.81,3.95h-14.05c-3.99,0-7.22,3.24-7.22,7.22s3.24,7.22,7.22,7.22h4.82v1.72c0,3.99,3.24,7.22,7.22,7.22s7.22-3.24,7.22-7.22v-2.68c6.95-2.37,12.04-9.25,12.04-17.44,0-10.15-7.74-18.4-17.26-18.4h-4.02c-1.32,0-2.8-1.63-2.8-3.96Z"/>
    <path class="cls-1" d="m330.43,192.53v-6.16c0-5.3-4.33-9.63-9.63-9.63h-4.82c-5.3,0-9.63,4.33-9.63,9.63s-4.33,9.63-9.63,9.63h-48.15c-5.3,0-9.63-4.33-9.63-9.63s-4.33-9.63-9.63-9.63h-4.82c-5.3,0-9.63,4.33-9.63,9.63v173.35c0,5.3,4.33,9.63,9.63,9.63h96.3c5.3,0,9.63-4.33,9.63-9.63v-6.07c4.72.77,9.53,1.25,14.45,1.25,1.64,0,3.18,0,4.82-.1v4.91c0,15.89-13,28.89-28.89,28.89h-96.3c-15.89,0-28.89-13-28.89-28.89v-173.35c0-15.89,13-28.89,28.89-28.89h96.3c15.89,0,28.89,13,28.89,28.89v4.91c-1.64-.1-3.18-.1-4.82-.1-4.91,0-9.73.48-14.45,1.35Z"/>
  </g>
</svg>