<?xml version="1.0" encoding="UTF-8"?>
<svg id="Layer_1" data-name="Layer 1" xmlns="http://www.w3.org/2000/svg" viewBox="0 0 560 560">
  <defs>
    <style>
      .cls-1 {
        fill: #c57d7b;
      }

      .cls-2 {
        fill: #fff;
      }
    </style>
  </defs>
  <circle class="cls-1" cx="280" cy="280" r="189.28"/>
  <g id="solid">
    <path class="cls-2" d="m174.09,323.27l-8.57,21.44,11.8,23.6h8.25s-5.97-11.94-5.97-11.94c-.55-1.11-.65-2.39-.25-3.57l4.44-13.31v-25.57s-13.11-15.29-13.11-15.29l3.69,22.15c.14.84.05,1.71-.27,2.51Z"/>
    <path class="cls-2" d="m173.7,228.54c-5.55,5.85-8.63,13.6-8.63,21.66v8.47c0,12.28,4.4,24.16,12.39,33.48l14.55,16.98c.73.85,1.13,1.93,1.13,3.04v26.82s16.75,29.31,16.75,29.31h10.47s-3.77-22.62-3.77-22.62c-.11-.63-.08-1.28.08-1.9l4.68-18.71c.29-1.16,1.02-2.16,2.03-2.81.05-.06.11-.11.17-.15,10.29-8,16.33-20.29,16.37-33.32,0-2.58,2.09-4.68,4.68-4.68,2.58,0,4.68,2.09,4.68,4.68-.04,13.27-5.18,26.03-14.35,35.63,28.5,9.08,59.42,6.7,86.21-6.62l.89-.44c2.11-1.05,4.67-.37,5.98,1.59l9.35,14.03c.51.77.79,1.67.79,2.59v12.93s4.18,8.37,4.18,8.37c.1.2.18.4.25.61l3.61,10.83h13.53s-2.63-7.87-2.63-7.87c-.24-.72-.3-1.5-.18-2.25l4.68-28.06c.16-.96.62-1.85,1.31-2.54l14.03-14.03c.66-.66,1.5-1.1,2.41-1.29,14.83-2.95,28.94-8.79,41.51-17.19l6.16-4.1v-22.67s-5.26-2.63-5.26-2.63c-7.65-3.82-14.62-8.85-20.66-14.9l-.2-.2c-3.7-3.7-7.03-7.76-9.94-12.12l-1.06-1.59c-3.45-5.17-8.03-9.49-13.4-12.63l-1.82,4.56c-3.17,8.01-10.93,13.26-19.54,13.23h-12.3c-2.58,0-4.68-2.09-4.68-4.68,0-2.58,2.09-4.68,4.68-4.68h12.3c4.79.02,9.09-2.9,10.85-7.35l12-30c-12.64.69-24.38,6.76-32.26,16.66l-3.92,4.9c-.89,1.11-2.23,1.75-3.65,1.75h-141.49c-3.64,0-7.24.63-10.66,1.87-.34-.08-.68-.12-1.03-.12h-4.68c-5.17,0-9.35-4.19-9.35-9.35,0-5.17,4.19-9.35,9.35-9.35h14.03c2.58,0,4.68-2.09,4.68-4.68,0-2.58-2.09-4.68-4.68-4.68h-14.03c-10.33.01-18.7,8.38-18.71,18.71,0,7.79,4.84,14.77,12.14,17.51Zm206.53,29.84c0-3.87,3.14-7.02,7.02-7.02,3.87,0,7.02,3.14,7.02,7.02,0,3.87-3.14,7.02-7.02,7.02-3.87,0-7.02-3.14-7.02-7.02Z"/>
  </g>
</svg>