<?xml version="1.0" encoding="UTF-8"?>
<svg id="Layer_1" data-name="Layer 1" xmlns="http://www.w3.org/2000/svg" viewBox="0 0 560 560">
  <defs>
    <style>
      .cls-1 {
        fill: #fff;
      }

      .cls-2 {
        fill: #d5d4d4;
      }
    </style>
  </defs>
  <circle class="cls-2" cx="280" cy="280" r="189.28"/>
  <g>
    <path class="cls-1" d="m146.64,250.81c3.62-9.54,11.92-14.89,19.26-20.91,21.02-17.21,44.85-29.03,71.23-35.55,22.35-5.53,44.97-6.98,67.89-4.18,38.62,4.73,72.35,20.18,101.46,45.86,2.91,2.57,5.78,5.25,8.32,8.17,5.39,6.2,4.92,15.33-.84,21.18-5.63,5.72-15.1,6.36-21.23,1.15-5.65-4.81-10.9-10.09-16.84-14.59-20.32-15.37-42.98-25.31-68.16-29.32-36.5-5.82-70.85.43-102.92,18.84-11.02,6.33-20.94,14.13-30.09,22.95-6.45,6.22-14.01,7.27-20.74,3.09-3.9-2.43-5.86-6.21-7.36-10.33v-6.37Z"/>
    <path class="cls-1" d="m290.61,242.2c27.9.39,58.91,12.86,84.73,37.92,8.48,8.23,6.6,21.29-3.78,26.12-5.82,2.71-11.54,2.09-16.67-1.95-4.3-3.39-8.12-7.35-12.55-10.62-20.53-15.14-43.62-21.47-68.85-19.32-22.33,1.9-41.95,10.6-58.57,25.79-2.21,2.02-4.3,4.21-7,5.65-6.88,3.66-15.2,1.92-20.02-4.2-4.77-6.05-4.68-14.47.68-20.17,9.22-9.81,20.03-17.62,31.91-23.91,19.41-10.28,40.14-15.37,70.13-15.3Z"/>
    <path class="cls-1" d="m281.7,292.83c23.14.42,42.13,8.17,57.97,23.48,6.4,6.18,6.7,15.57.84,22.21-5.58,6.32-15.36,7.1-21.96,1.35-5.84-5.1-11.83-9.84-19.3-12.3-18.49-6.09-35.18-2.82-49.92,9.91-2.83,2.44-5.59,4.87-9.39,5.7-7.09,1.54-14.09-1.63-17.51-7.95-3.43-6.35-2.35-13.83,2.99-18.97,12.77-12.31,27.84-20.05,45.52-22.46,1.14-.15,2.27-.4,3.41-.49,2.82-.22,5.65-.37,7.34-.48Z"/>
    <path class="cls-1" d="m306.07,372.11c.05,12.89-10.77,23.7-23.62,23.6-12.79-.09-23.63-10.71-23.49-23.49.15-13.34,10.29-23.39,23.64-23.55,12.87-.16,23.42,10.6,23.47,23.44Z"/>
  </g>
</svg>