<?xml version="1.0" encoding="UTF-8"?>
<svg id="Layer_1" data-name="Layer 1" xmlns="http://www.w3.org/2000/svg" viewBox="0 0 560 560">
  <defs>
    <style>
      .cls-1 {
        fill: #fff;
      }

      .cls-2 {
        fill: #973930;
      }
    </style>
  </defs>
  <circle class="cls-2" cx="280" cy="280" r="189.28"/>
  <g>
    <path class="cls-1" d="m342.38,191.63c2.3,0,4.16,1.86,4.16,4.16v8.32c0,2.3-1.86,4.16-4.16,4.16h-4.16c-4.59,0-8.32,3.73-8.32,8.32v20.79h-16.63v-20.79c0-13.78,11.17-24.95,24.95-24.95h4.16Z"/>
    <path class="cls-1" d="m252.56,320.53h-2.5c-1.08-5.31-3.19-10.23-6.08-14.59l1.8-1.8c.97-.97.97-2.55,0-3.53l-8.23-8.23c-.97-.97-2.55-.97-3.53,0l-1.8,1.8c-4.36-2.89-9.28-5.01-14.59-6.08v-2.5c0-1.38-1.11-2.49-2.49-2.49h-11.64c-1.38,0-2.49,1.11-2.49,2.49v2.5c-5.31,1.08-10.23,3.19-14.59,6.08l-1.8-1.8c-.97-.97-2.55-.97-3.53,0l-8.23,8.23c-.97.97-.97,2.55,0,3.53l1.8,1.8c-2.89,4.36-5.01,9.28-6.08,14.59h-2.5c-1.38,0-2.49,1.11-2.49,2.49v11.64c0,1.38,1.11,2.49,2.49,2.49h2.5c1.08,5.31,3.19,10.23,6.08,14.59l-1.8,1.8c-.97.97-.97,2.55,0,3.53l8.23,8.23c.97.97,2.55.97,3.53,0l1.8-1.8c4.36,2.89,9.28,5.01,14.59,6.08v2.5c0,1.38,1.11,2.49,2.49,2.49h11.64c1.38,0,2.49-1.11,2.49-2.49v-2.5c5.31-1.08,10.23-3.19,14.59-6.08l1.8,1.8c.97.97,2.55.97,3.53,0l8.23-8.23c.97-.97.97-2.55,0-3.53l-1.8-1.8c2.89-4.37,5-9.28,6.08-14.59h2.5c1.38,0,2.49-1.11,2.49-2.49v-11.64c0-1.38-1.11-2.49-2.49-2.49Zm-43.24,24.95c-9.19,0-16.63-7.44-16.63-16.63s7.44-16.63,16.63-16.63,16.63,7.44,16.63,16.63-7.44,16.63-16.63,16.63Z"/>
    <path class="cls-1" d="m393.94,328.85h-2.84c-.78-3.03-1.98-5.85-3.53-8.48l2.02-2.02c.97-.97.97-2.55,0-3.53l-8.23-8.23c-.97-.97-2.55-.97-3.53,0l-2.02,2.02c-2.63-1.55-5.46-2.74-8.48-3.53v-2.84c0-1.38-1.11-2.49-2.49-2.49h-11.64c-1.38,0-2.49,1.11-2.49,2.49v2.84c-3.03.78-5.85,1.98-8.48,3.53l-2.02-2.02c-.97-.97-2.55-.97-3.53,0l-8.23,8.23c-.97.97-.97,2.55,0,3.53l2.02,2.02c-1.55,2.63-2.74,5.46-3.53,8.48h-2.85c-1.38,0-2.49,1.11-2.49,2.49v11.64c0,1.38,1.11,2.49,2.49,2.49h2.84c.78,3.03,1.98,5.85,3.53,8.48l-2.02,2.02c-.97.97-.97,2.55,0,3.53l8.23,8.23c.97.97,2.55.97,3.53,0l2.02-2.02c2.63,1.55,5.46,2.74,8.48,3.53v2.85c0,1.38,1.11,2.49,2.49,2.49h11.64c1.38,0,2.49-1.11,2.49-2.49v-2.84c3.03-.78,5.85-1.98,8.48-3.53l2.02,2.02c.97.97,2.55.97,3.53,0l8.23-8.23c.97-.97.97-2.55,0-3.53l-2.02-2.02c1.55-2.63,2.74-5.46,3.53-8.48h2.85c1.38,0,2.49-1.11,2.49-2.49v-11.64c0-1.39-1.11-2.5-2.49-2.5h0Zm-47.4,8.32c0-6.89,5.59-12.47,12.47-12.47s12.47,5.59,12.47,12.47-5.59,12.47-12.47,12.47-12.47-5.59-12.47-12.47Z"/>
    <path class="cls-1" d="m363.13,249.88l-90.93.17-13.93-41.79h5.1c4.6,0,8.32-3.72,8.32-8.32s-3.72-8.32-8.32-8.32c-1.38,0-95.48,0-91.48,0-4.6,0-8.32,3.72-8.32,8.32s3.72,8.32,8.32,8.32h8.32v56.36c-6.72,3.05-10.64,5.69-13.24,7.61-8.64,6.43.84,20.19,10.1,13.27,8.99-6.72,20.15-10.71,32.25-10.71,29.86,0,54.06,24.2,54.06,54.06,0,1.41-.11,2.78-.21,4.16h50.31c2.1-23.31,21.67-41.58,45.53-41.58,7.49,0,14.55,1.84,20.79,5.03v-29.95c0-9.2-7.47-16.65-16.67-16.63h0Zm-121.07,16.34c-13.65-7.16-29.12-9.75-45.22-6.89v-51.07h43.9l14.17,42.5c-.68,4.7-6.42,14.23-12.85,15.46h0Zm58.73,22.71c0,1.38-1.11,2.49-2.49,2.49h-7.48c-1.38,0-2.49-1.11-2.49-2.49v-19.96c0-1.38,1.11-2.49,2.49-2.49h7.48c1.38,0,2.49,1.11,2.49,2.49v19.96Zm24.95,0c0,1.38-1.11,2.49-2.49,2.49h-7.48c-1.38,0-2.49-1.11-2.49-2.49v-19.96c0-1.38,1.11-2.49,2.49-2.49h7.48c1.38,0,2.49,1.11,2.49,2.49v19.96Z"/>
  </g>
</svg>