<?xml version="1.0" encoding="UTF-8"?>
<svg id="Layer_1" data-name="Layer 1" xmlns="http://www.w3.org/2000/svg" viewBox="0 0 560 560">
  <defs>
    <style>
      .cls-1 {
        fill: #fff;
      }

      .cls-2 {
        fill: #39b54a;
      }
    </style>
  </defs>
  <circle class="cls-2" cx="280" cy="280" r="189.28"/>
  <g>
    <path class="cls-1" d="m266.26,308.23c5.01-.74,10.12-.59,15.08.46,2.17.47,4.39.67,6.61.59,4.86-.2,9.55-1.78,13.55-4.55h0c6.15-3.64,10.51-9.69,12.02-16.68,1.97-7.25,4.68-17.19,20.13-27.1,3.49-2.22,7.26-3.98,11.2-5.22-3-9.15-9.41-16.79-17.9-21.33-5.86-3.66-12.65-5.56-19.56-5.48.75,3.96.11,8.07-1.81,11.62-7.55,13.59-28.4,11.06-42.16,3.41-17.26-9.59-25.77-26.1-19.39-37.6,2-3.5,5.15-6.2,8.91-7.65-9.46-14.68-27.26-21.64-44.17-17.27-10.16,2.89-18.81,9.61-24.11,18.75-8.95,16.11-8.72,62.42,50.22,95.17,9.87,5.59,20.41,9.92,31.37,12.89Zm-53.21-111.92c-6.21,1.76-11.52,5.83-14.83,11.38-1,1.89-3.34,2.61-5.23,1.61-1.89-1-2.61-3.34-1.61-5.23.02-.05.05-.09.08-.14,4.33-7.33,11.29-12.72,19.47-15.08,2.06-.59,4.2.6,4.79,2.66.59,2.06-.6,4.2-2.66,4.79v.02Z"/>
    <path class="cls-1" d="m250.85,210.08c-4.14,7.44,3.36,19.84,16.37,27.07,6.08,3.56,13.03,5.38,20.08,5.26,4.57.24,8.94-1.9,11.56-5.66,1.06-2.05,1.39-4.4.92-6.66-3.09.9-6.3,1.36-9.52,1.38-6.07.06-12.05-1.55-17.28-4.65-5.41-2.79-9.95-7.03-13.12-12.23-1.67-2.73-2.96-5.67-3.83-8.75-2.16.78-3.99,2.28-5.18,4.24Z"/>
    <path class="cls-1" d="m305.69,311.25c-5.01,3.41-10.86,5.39-16.92,5.72-3.19.18-6.39-.08-9.52-.77-.32,2.27.15,4.57,1.33,6.54,5.63,8.76,22.27,4.3,31.45-1.58,12.47-8,19.15-20.78,14.58-27.91-1.3-1.89-3.22-3.27-5.42-3.9-.67,3.11-1.76,6.11-3.25,8.93-2.83,5.36-7.07,9.85-12.26,12.99Z"/>
    <path class="cls-1" d="m391.79,279.28c-5.39-8.03-13.46-13.9-22.77-16.54-10.58-3.1-21.99-1.37-31.17,4.73-5.98,3.4-10.86,8.45-14.05,14.55,3.83,1.21,7.12,3.7,9.33,7.05,7.07,11.04-.36,28-16.93,38.61-13.06,8.37-33.76,12.33-42.14-.77-2.13-3.4-3.02-7.43-2.52-11.41-6.86.36-13.47,2.69-19.05,6.7-18.11,11.66-23.39,35.77-11.81,53.93,4.93,7.7,17.79,16.76,35.39,19.66,15.4,2.52,40.36,1.33,71.76-18.78,56.52-36.23,53.86-82.27,43.97-97.72Zm-130.97,55.94c-10.89,7.07-14.06,21.57-7.12,32.54,1.15,1.8.63,4.2-1.17,5.35-1.8,1.15-4.2.63-5.35-1.17h0c-9.22-14.57-5-33.85,9.47-43.24,1.76-1.22,4.17-.78,5.39.97,1.22,1.76.78,4.17-.97,5.39-.08.05-.16.11-.24.15h0Z"/>
  </g>
</svg>