<?xml version="1.0" encoding="UTF-8"?>
<svg id="Layer_1" data-name="Layer 1" xmlns="http://www.w3.org/2000/svg" viewBox="0 0 560 560">
  <defs>
    <style>
      .cls-1 {
        fill: #218ca5;
      }

      .cls-2 {
        fill: #fff;
      }
    </style>
  </defs>
  <circle class="cls-1" cx="280" cy="280" r="189.28"/>
  <g id="Planting-2">
    <g id="Glyph">
      <path class="cls-2" d="m249.52,280c17.26,0,34.28-12.82,50.92-12.82,11.42,0,20.55,6.83,23.77,16.43,1.63,4.86,7.77,6.4,11.58,2.97h0c2.42-2.2,3.07-5.75,1.57-8.65-16.09-31.67-54.8-44.3-86.47-28.21-7.68,3.9-14.5,9.31-20.05,15.9-2.72,3.21-2.33,8.02.88,10.75,1.02.87,2.25,1.45,3.57,1.69,5.11.92,10.33,1.95,14.22,1.95Z"/>
      <path class="cls-2" d="m232.58,388.4h-57.59c-1.87,0-3.39-1.52-3.39-3.39v-37.26c0-11.79,1.86-28.72,10.7-42.48,9.33-14.52,23.97-21.88,43.5-21.88,4.8,0,18.57,3.39,23.71,3.39,12.76,0,25.88-5.25,37.46-9.89,33.58-13.44,39.75,23.3,21.82,30.09-13.22,5-35.82,8.5-46.48,18.75l56.68-14.91,32.45-29.2c4.56-20.71,5.7-49.03,33.57-49.03,1.89.03,3.41,1.58,3.38,3.48,0,.16-.02.31-.04.47-.35,2.12-9.42,61.29-11.11,62.81l-54.2,54.2c-1.17,1.48-74.68,17.76-76.5,18.18-6.2,1.41-10.6,6.93-10.58,13.3,0,1.87-1.52,3.39-3.39,3.39Z"/>
      <path class="cls-2" d="m344.1,176.53c-1.1-.36-27.12-8.71-44.44-2.64-9.75,3.42-16.06,8.19-19.56,13.27-3.43-5.14-9.71-9.97-19.5-13.4-17.16-6.01-42.98,2.42-44.07,2.78-1.79.62-2.73,2.57-2.11,4.36.09.25.2.49.34.71,5.3,8.12,22.82,32.58,48.11,32.58,4.98,0,9.94-1.28,13.75-3.98v22.79c0,1.87,1.52,3.39,3.39,3.39h0c1.87,0,3.39-1.52,3.39-3.39v-22.39c7.78,5.42,20.33,4,29.36.84,17.31-6.07,32.49-28.85,33.13-29.82,1.02-1.6.55-3.72-1.05-4.74-.23-.15-.47-.26-.73-.35Z"/>
    </g>
  </g>
</svg>