<?xml version="1.0" encoding="UTF-8"?>
<svg id="Layer_1" data-name="Layer 1" xmlns="http://www.w3.org/2000/svg" viewBox="0 0 560 560">
  <defs>
    <style>
      .cls-1 {
        fill: #fff;
      }

      .cls-2 {
        fill: #8accd6;
      }
    </style>
  </defs>
  <circle class="cls-2" cx="280" cy="280" r="189.28"/>
  <g>
    <path class="cls-1" d="m352.7,233.98c-.57-1.11-.75-1.78-1.17-2.2-3.36-3.38-6.7-6.77-10.16-10.05-30.35-28.79-16.33-21.29-58.65-24.38-29.45-2.15-51.81,5.97-69.1,29.34-1.65,2.23-5.62,3.77-4.69,6.64,1.22,3.77,5.47,2.25,8.42,2.26,42.55.1,85.1.08,127.65.03,2.44,0,5.09.66,7.69-1.64Z"/>
    <path class="cls-1" d="m358.22,250.69c.03-7.64-2.88-10.89-10.65-10.86-45.04.16-90.08.16-135.12,0-7.75-.03-10.71,3.19-10.67,10.84.17,38.7.24,77.39-.05,116.09-.07,8.97,3.9,11.49,12.13,11.38,21.88-.3,43.77-.1,65.66-.1,22.2,0,44.41-.19,66.61.1,8.21.11,12.21-2.37,12.15-11.36-.29-38.69-.22-77.39-.05-116.09Zm-129.77,108.64c0,5.63-.34,11.3-8.19,11.12-7.52-.18-7.11-5.83-7.13-10.94-.05-17.42-.02-34.84-.02-52.26,0-17.1-.01-34.21.01-51.31,0-5.27.1-10.55,7.53-10.62,7.35-.06,7.79,5.1,7.8,10.43.03,34.52.03,69.05,0,103.57Z"/>
    <path class="cls-1" d="m333.23,170.69c-7.91-6.26-15.82-13.42-25.74-15.77-1.03-.24-2.05-.46-3.08-.68h-9.74v-1.59h-29.06v1.59h-9.99c-9.08,2.66-17.87,7.14-26.27,14.05-6.33,5.21-6.66,11.18-5.6,17.79,1.14,7.1,7.55,7.16,12.72,7.29,14.56.38,29.13.13,43.69.13v-.11c14.88,0,29.77.21,44.64-.12,4.6-.1,10.2-.57,11.3-6.57,1.01-5.53,2.25-11.97-2.87-16.03Zm-101.13,3.29c7.33-5.9,13.4-13.18,23.28-13.97v-.13h10.24v1.94h29.06v-1.94h10.48v.19c9.33,1.12,15.64,7.84,22.98,13.91h-96.03Z"/>
  </g>
</svg>