<?xml version="1.0" encoding="UTF-8"?>
<svg id="Layer_1" data-name="Layer 1" xmlns="http://www.w3.org/2000/svg" viewBox="0 0 560 560">
  <defs>
    <style>
      .cls-1 {
        fill: #fff;
      }

      .cls-2 {
        fill: #e8b421;
      }
    </style>
  </defs>
  <circle class="cls-2" cx="280" cy="280" r="189.28"/>
  <path class="cls-1" d="m405.48,330.83v-55.14c-21.15,0-21.15,6.94-42.3,6.94-8.7,0-13.82-1.17-18.31-2.56v-33.39h3.46c15.3,0,27.69-12.4,27.69-27.69v-26.19h-10.89c-15.3,0-27.69,12.4-27.69,27.69,0-15.3-12.4-27.69-27.69-27.69h-10.89v26.19c0,15.3,12.4,27.69,27.69,27.69h3.46v29.54c-2.57-.33-5.54-.53-9.12-.53-21.15,0-21.15,6.94-42.29,6.94s-21.15-6.94-42.29-6.94c-3.57,0-6.54.2-9.11.53v-29.54h3.46c15.3,0,27.69-12.4,27.69-27.69v-26.19h-10.89c-15.3,0-27.69,12.4-27.69,27.69,0-15.3-12.4-27.69-27.69-27.69h-10.89v26.19c0,15.3,12.4,27.69,27.69,27.69h3.46v33.39c-4.49,1.38-9.61,2.56-18.31,2.56-21.15,0-21.15-6.94-42.29-6.94v55.14h14.87v14.87h-14.87v22.12h253.76v-22.12h-14.87v-14.87h14.87Zm-199.08-11.08h-14.87v-14.87h14.87v14.87Zm39.82,25.95h-14.87v-14.87h14.87v14.87Zm39.82-25.95h-14.87v-14.87h14.87v14.87Zm39.82,25.95h-14.87v-14.87h14.87v14.87Zm39.82-25.95h-14.87v-14.87h14.87v14.87Z"/>
</svg>