<?xml version="1.0" encoding="UTF-8"?>
<svg id="Layer_1" data-name="Layer 1" xmlns="http://www.w3.org/2000/svg" viewBox="0 0 560 560">
  <defs>
    <style>
      .cls-1 {
        fill: #fff;
      }

      .cls-2 {
        fill: #068242;
      }
    </style>
  </defs>
  <circle class="cls-2" cx="280" cy="280" r="189.28"/>
  <g>
    <path class="cls-1" d="m249.71,280.33c-4.57,0-8.82,1.3-12.45,3.51-8.19-15.22-24.23-25.58-42.73-25.58-1.49,0-2.96.09-4.41.22l1.17,13.19c1.07-.09,2.15-.17,3.24-.17,12.71,0,24.25,6.92,30.48,17.68-14.43.23-26.06,11.98-26.06,26.47,0,3.7.77,7.23,2.14,10.43,9.8-11.66,28.76-19.26,28.76-19.26v13.24s13.24,0,13.24-17.66c4.02-6.68,10.21-13.24,19.87-13.24,2.11,0,4.14.3,6.08.8-4.43-5.84-11.43-9.63-19.33-9.63h0Z"/>
    <path class="cls-1" d="m278.4,280.33c-1.99,0-3.94.16-5.86.41,2.75,2.69,5.86,5.89,5.86,9.54,0,4.26-3.45,7.71-7.71,7.71h-7.74c-2.72,0-6.75.79-11.13,7.14-1.17,17.38-13.54,23.76-21.98,23.76h-4.41c-2.44,0-4.41-1.98-4.41-4.41v-3.26c-13.21,8-11.98,12.09-19.19,12.09-5.91,0-11.71-4.21-11.71-17.66,0-.51.06-1.01.08-1.51-10.84,8.9-17.74,22.09-17.74,36.83,0,26.82,22.73,48.56,50.77,48.56,10.77,0,20.74-3.23,28.94-8.72,4.17-2.79,8.96-4.53,13.99-4.53h12.26c26.82,0,48.56-23.72,48.56-52.98s-21.74-52.98-48.56-52.98Zm25.39,72.07c-1.18,1.79-3.22,2.98-5.53,2.98-3.66,0-6.62-2.97-6.62-6.62,0-1.29.38-2.49,1.03-3.51,1.94-3.54,3.39-7.43,3.39-11.94s-1.44-8.4-3.39-11.94c-.64-1.02-1.03-2.22-1.03-3.51,0-3.66,2.96-6.62,6.62-6.62,2.31,0,4.34,1.19,5.53,2.98,3.11,5.18,5.51,12.58,5.51,19.09s-2.4,13.91-5.51,19.09Z"/>
    <path class="cls-1" d="m289.49,268.65c-1.43-4.96-3.5-11.83-6.17-19.73l-27.61-4.03c-2.14-.31-3.8-2.07-3.8-4.3,0-2.44,1.98-4.41,4.41-4.41.22,0,.63.04.63.04l23.08,3.3c-5.83-16.05-13.58-34.57-22.97-49.6-.43-.68-.74-1.44-.74-2.3,0-2.44,1.98-4.41,4.41-4.41,1.58,0,2.9.87,3.68,2.11,15.54,24.87,26.66,57.73,32.12,75.95,15.63-16.44,26.85-28.96,34.9-38.49-.78-16.95-5.32-44-26.55-44h-6.63c-22.25,0-22.34-17.66-41.93-17.66-12.03,0-22.07,8-22.07,17.66,0,5.03-3.8,8.83-8.83,8.83-12.2,0-22.07,7.9-22.07,17.66,0,22.07,30.9,13.24,30.9,44.15,0,23.65,24.58,15.68,33,23.11,4.11-.56,6.99-1.03,11.14-1.03,2.63,0,5.19.26,7.72.64l3.37-3.5Z"/>
    <path class="cls-1" d="m384.36,253.84c-6.53,0-11.5,2.76-15.22,8.85-8.18,13.04-28.37,27.86-42.44,37.35,5.73,9.62,9.1,21.01,9.1,33.26,0,24.63-13.49,45.89-32.89,55.81,45.98-8.81,99.11-54.34,99.11-117.62,0-9.75-7.91-17.66-17.66-17.66h0Z"/>
    <path class="cls-1" d="m321.63,292.81l.12-.08c25.95-17.51,36.02-28.55,39.9-34.73,5.18-8.47,13.05-12.98,22.7-12.98.22,0,.43.03.64.03,2.35-9.73,3.77-20.02,3.77-30.93,0-9.75-7.91-17.66-17.66-17.66-6.53,0-11.5,2.76-15.22,8.85-12.07,19.23-46.14,55.02-59.81,69.23,10.02,3.5,18.79,9.91,25.55,18.28h0Z"/>
  </g>
</svg>