<?xml version="1.0" encoding="UTF-8"?>
<svg id="Layer_1" data-name="Layer 1" xmlns="http://www.w3.org/2000/svg" viewBox="0 0 560 560">
  <defs>
    <style>
      .cls-1 {
        fill: #fff;
      }

      .cls-2 {
        fill: #6373b6;
      }
    </style>
  </defs>
  <circle class="cls-2" cx="280" cy="280" r="189.28"/>
  <g>
    <path class="cls-1" d="m207.57,289.2c-2.45,4.24-6.55,8.93-13.42,13.29,1.56,1.04,3.19,1.99,4.86,2.84,2.94,1.48,4.6,4.68,4.1,7.94l-.39,2.59s-.01.06-.02.1c-.05.28.02.57.18.8.15.2.36.34.61.4.57.13,1.14-.22,1.27-.79l.27-1.49c.64-3.51,3.6-6.12,7.16-6.32.77-.03,1.54-.11,2.3-.24,3.64-.61,7.19,1.45,8.49,4.9l.16.44s.02.06.03.09c.09.27.29.5.55.62.27.12.57.13.84.02.5-.19.76-.73.62-1.25l-1.01-3.04c-.91-2.81-.14-5.89,1.98-7.94,1.43-1.39,2.73-2.93,3.86-4.57-6.95-4.06-14.55-6.89-22.46-8.39h0Z"/>
    <path class="cls-1" d="m339.79,329.93c-.57-3.13-.58-6.34-.03-9.48,1.58-9.18,2.44-16.82,2.5-21.95-1.55.81-3.2,1.58-4.97,2.31-1.31,4.45-2.08,8.43-1.69,10.76,1.39,8.3-1.65,17.24-2.52,19.54-.04,4.66.77,15.72,4.8,20.7h12.71s-2.56-3.06-2.56-3.06c-4.82-4.69-7.15-12.81-8.25-18.82Z"/>
    <path class="cls-1" d="m209.24,351.77c-6.47-4.86-9.07-16.22-10.05-22.56-.3-1.95-.24-3.93.15-5.86.1-.51.19-1.04.28-1.56-2.17-1.57-3.25-4.24-2.79-6.87l.38-2.54c.11-.7-.24-1.4-.87-1.72-2.71-1.38-5.31-2.98-7.76-4.79,1.93,10.9,2.66,18.84,3.25,25.3.33,3.57.61,6.65,1.02,9.26l.06.36c.53,3.33.94,5.42,2.63,6.41,1.99,1.15,3.59,2.88,4.6,4.95l1.79,3.68,11.02-1.28-3.71-2.77h0Z"/>
    <path class="cls-1" d="m149.06,285.74c1.12,8.8.54,8.84-1.97,17.51-1.55,5.36-.42,8.26,1.36,11.48,3.29-7.75,4.19-11.81,3.88-16.09-.15-2.01-.55-13.23,2.54-20.02-3.11-9.02-4.3-18.59-3.48-28.1,1.02-11.79,2.95-20.91,5.91-27.88.01-.03.02-.05.03-.08.66-1.51,2.43-2.19,3.93-1.53,1.51.66,2.19,2.43,1.53,3.93-2.67,6.3-4.5,15.07-5.46,26.07-.77,9.06.44,18.19,3.56,26.74,3.31,9.22,6.53,22.49,3.07,33.38-.91,2.86-.37,6.28.38,11,.92,5.78,2.18,13.7,1.37,24.99-.1,1.37-.51,2.71-1.19,3.91-1.12,1.96-1.78,4.15-1.94,6.4-.01.12.03.24.12.33.1.1.23.15.37.15l15.98-.24-1.87-1.8c-3.96-3.79-6.4-8.91-6.84-14.38-.33-4.33-.21-8.68.34-12.99.33-2.44,1.28-4.75,2.75-6.72,1.85-2.43,3.45-6.24,4.62-11.03.92-3.75,2.49-7.89,7.08-10.11,24.61-11.87,19.81-27.79,19.59-28.48-.52-1.56.32-3.25,1.88-3.78,1.56-.52,3.25.32,3.78,1.88.08.23,1.88,5.68-.2,12.86-.04.14-.09.29-.13.44,9.13,1.89,17.85,5.45,25.7,10.48,25.86,16.46,64.27,5.07,74.28,1.65-6.5-28.23,9.26-40.22,9.98-40.74,1.33-.98,3.2-.69,4.17.64.98,1.33.69,3.2-.64,4.17-.15.11-15.24,11.61-6.19,40.08,7.04,22.15,4.25,37.94,1.96,45.38-.6,1.92.07,4.02,1.68,5.23l.68.51c1.71,1.27,3,3.03,3.7,5.05l1.43,4.1h11.1s-3.36-3.18-3.36-3.18c-7.64-7.27-7.45-24.55-7.4-26.5,0-.36.08-.72.22-1.05.04-.09,3.66-9.13,2.37-16.85-1.56-9.34,8.2-30.52,9.32-32.9,0-.01.01-.03.02-.04.71-1.49,2.49-2.11,3.98-1.4,1.49.71,2.11,2.49,1.4,3.98-1.39,2.97-3.03,6.83-4.52,10.82,10.4-5.51,15.46-12.89,20.77-20.63,4.44-6.47,9.03-13.17,16.84-18.22,18.93-12.25,40.89,1.64,47.17,6.19.77.59,1.77.78,2.7.52,2.81-.87,4.9-3.13,6.22-6.7.47-1.34.15-2.84-.85-3.86-.12-.12-.22-.25-.32-.39l-8.65-12.71c-.33-.49-.51-1.08-.52-1.67,0-.07-.07-7.38-3.68-11.41-1.78-1.94-2.85-4.43-3.05-7.06-.18-2.61-3.88-5.29-10.71-7.76-2.03-.72-3.67-2.25-4.55-4.21-.88-1.93-.93-4.14-.14-6.11,1.03-2.42,2.31-4.73,3.82-6.88,1.67-2.29,3.63-4.36,5.84-6.14-.69.18-1.38.38-2.08.62-8.29,2.81-13.03,8.6-14.07,17.2-.37,3.23-3.05,5.71-6.3,5.81-8.05.26-28.07.39-40.04-4.09-12.74-4.76-30.9-3.34-49.83,3.9-7.03,2.69-25.13,5.93-100.89,3.05-3.35-.13-5.76-.22-7.03-.25-1.47-.03-3.56-.29-6.21-.61-5.12-.7-10.27-1.12-15.43-1.27-.73-.01-1.46.02-2.19.09-10.78,1.06-18.66,10.65-17.61,21.44.3,3.04-.3,10.81-1.29,17.27-1.3,8.45-.32,24.48,1.22,36.62h0Zm229.35-66.09c-.32-.69-.37-1.49-.12-2.21.53-1.56,2.22-2.4,3.78-1.87.04.01,4.29,1.35,7.68-.91,5.52-3.67,10.72-3,12.93-2.03l-1.2,2.73-1.15,2.75c-.13-.05-3.19-1.2-7.27,1.52-1.79,1.18-3.84,1.93-5.97,2.18,2.65,2.79,6.89,5.36,12.67,3.08,1.49-.54,3.15.18,3.77,1.64.64,1.52-.06,3.27-1.58,3.91-2.09.85-4.31,1.3-6.56,1.32-8.78,0-14.74-7.35-16.96-12.11h0Z"/>
    <path class="cls-1" d="m407.97,203.72c2.53-3.35,6.23-6.54,9.72-9.14-3.98.67-7.83,1.86-9.7,3.95-.49.85-.91,1.73-1.28,2.64-.19.47-.17,1,.04,1.46.22.49.63.87,1.14,1.05l.09.03h0Z"/>
  </g>
</svg>