<?xml version="1.0" encoding="UTF-8"?>
<svg id="Layer_1" data-name="Layer 1" xmlns="http://www.w3.org/2000/svg" viewBox="0 0 560 560">
  <defs>
    <style>
      .cls-1 {
        fill: #fff;
      }

      .cls-2 {
        fill: #ed7426;
      }
    </style>
  </defs>
  <circle class="cls-2" cx="280" cy="280" r="189.28"/>
  <g>
    <path class="cls-1" d="m384.99,298.09c-2.41-.7-4.84-1.45-7-2.72-5.11-3.01-10.72-4.36-16.48-5.3-11.87-1.94-23.82-1.43-35.78-1.44-10.94,0-20.4,3.64-29.15,9.87-8.56,6.09-16.35,13.05-23.64,20.59-12.74,13.17-24.13,27.61-37.63,40.06-.56.51-.87,1.29-1.3,1.94-.2-.17-.41-.33-.61-.5.24-1.93.44-3.87.72-5.79,2.29-16.17,4.59-32.34,7.4-48.43,2.88-16.55,5.82-33.08,10.26-49.3,2.73-9.99,6.75-19.58,8.89-29.75,2.14-10.19,3.87-20.39,2.1-30.84-1.6-9.46-6.7-15.23-15.21-16.67-4.74-.8-9.52-.33-14.2,1.33,1.15.18,2.32.25,3.43.57,5.97,1.69,8.87,6.21,10.38,11.78,2.53,9.35,1.5,18.73-.21,28.05-2.82,15.37-7.88,30.07-14.43,44.19-2.31,4.98-5.55,9.62-10.09,13.14-10.75,8.33-20.55,17.61-28.18,28.97-3.83,5.72-7.12,11.77-7.9,18.71-1.48,13.1.17,25.86,4.97,38.17.51,1.32.67,2.31-.18,3.67-3.02,4.84-2.36,10.57,1.49,14.8,1.32,1.45,2.73,2.84,4.15,4.2,5.02,4.82,11.67,5.07,17.08.67.61-.5,1.18-.99,1.98-1.22,24.4-7.12,47-17.69,66.13-34.82,1.09-.97,1.46-.68,1.87.54.99,2.92,1.43,5.94,2.01,8.95.35,1.83,1.5,2.9,3.22,3.38,1.79.5,3.29-.16,4.41-1.54,3.69-4.52,6.98-9.3,9.06-14.81,2.19-5.8,2.79-11.6-.13-17.35-.48-.95-.1-1.4.49-1.99,4.23-4.23,8.58-8.33,13.17-12.17,1.01-.84,2.11-1.27,3.37-1.51,7.56-1.44,15.14-2.76,22.78-3.64,3.97-.46,7.97-1.59,11.95-.97,11.01,1.71,21.41-.11,31.41-4.78,1.83-.85,3.34-1.9,3.22-4.15-.13-2.35-1.79-3.29-3.82-3.88Z"/>
    <path class="cls-1" d="m327.85,238.38l21.64-23.93c-8.59-7.56-16.56-15.39-23.73-23.28-9.87,4.57-19.11,10.1-27.97,16.21,8.58,10.44,18.77,20.95,30.07,31Z"/>
    <path class="cls-1" d="m378.05,231.44c3.18-8.3,5.4-16.85,5.18-25.96-.16-6.57-2.07-11.91-5.45-15.8l-22.07,24.4c7.37,6.3,14.87,12.13,22.34,17.37Z"/>
    <path class="cls-1" d="m303.29,265.54l21.64-23.93c-11.55-10.27-21.96-21.04-30.73-31.74-6.4,4.58-12.61,9.45-18.72,14.49-2.1,1.74-4.04,3.5-5.51,5.55,9.13,11.9,20.47,24.05,33.31,35.62Z"/>
    <path class="cls-1" d="m256.12,276.23c-3,14.14-5.49,28.37-7.87,42.62-.5,3.02-.96,6.05-1.42,9.12l28.99-32.05c-7.06-6.44-13.67-13.04-19.7-19.69Z"/>
    <path class="cls-1" d="m257.26,270.98c6.48,7.32,13.7,14.61,21.48,21.7l21.62-23.91c-12.41-11.17-23.45-22.9-32.51-34.46-.23.82-.42,1.66-.49,2.58-.01.15-.12.29-.16.44-2.91,9.94-6.74,19.58-9.08,29.7-.3,1.31-.57,2.63-.86,3.94Z"/>
    <path class="cls-1" d="m376.04,236.44c.12-.28.23-.56.35-.85-7.9-5.49-15.82-11.63-23.6-18.29l-21.66,23.95c9.83,8.51,19.92,16.16,29.87,22.73,5.75-8.74,10.9-17.85,15.04-27.55Z"/>
    <path class="cls-1" d="m352.42,211.21l22.15-24.49c-3.8-2.75-8.74-4.27-14.68-4.32-10.58-.09-20.43,2.83-29.93,6.89,6.82,7.42,14.36,14.79,22.47,21.92Z"/>
    <path class="cls-1" d="m245.64,335.91c1.32-.56,1.73-1.36,2.26-2,5.41-6.56,11.02-12.95,16.94-19.04,5.01-5.16,10.15-10.16,15.6-14.8-.46-.41-.92-.82-1.38-1.23l-33.4,36.94s-.01.09-.02.14Z"/>
    <path class="cls-1" d="m347.09,279.99c1.22.09,2.34.25,3.32-1.05,2.81-3.73,5.53-7.5,8.15-11.34-10.13-6.69-20.37-14.47-30.35-23.11l-21.65,23.94c.23.2.46.41.69.61,4.53,3.95,9.13,7.7,13.73,11.27,8.71-.3,17.4-.98,26.11-.32Z"/>
    <path class="cls-1" d="m303.63,271.67l-21.64,23.93c.62.55,1.23,1.1,1.86,1.65,4.23-3.39,8.65-6.54,13.35-9.34,5.52-3.29,11.27-5.83,17.53-6.95-3.47-2.77-6.93-5.64-10.36-8.62-.25-.22-.5-.44-.75-.66Z"/>
  </g>
</svg>